<?xml version="1.0" standalone="no"?>
<!DOCTYPE svg PUBLIC "-//W3C//DTD SVG 20010904//EN"
 "http://www.w3.org/TR/2001/REC-SVG-20010904/DTD/svg10.dtd">
<svg version="1.0" xmlns="http://www.w3.org/2000/svg"
 width="278.000000pt" height="278.000000pt" viewBox="0 0 278.000000 278.000000"
 preserveAspectRatio="xMidYMid meet">
<metadata>
Created by potrace 1.14, written by Peter Selinger 2001-2017
</metadata>
<g transform="translate(0.000000,278.000000) scale(0.100000,-0.100000)"
fill="#000000" stroke="none">
<path d="M1274 2706 c-13 -10 -23 -11 -31 -4 -9 7 -13 7 -13 -1 0 -8 -8 -10
-21 -6 -15 5 -19 4 -14 -5 6 -9 3 -9 -14 -1 -11 7 -21 8 -21 4 0 -5 -12 -10
-26 -11 -14 -1 -31 -5 -37 -9 -7 -4 -19 -6 -29 -5 -9 2 -19 -2 -22 -7 -4 -6
-13 -8 -21 -4 -8 3 -15 0 -15 -7 0 -9 -4 -9 -17 1 -9 8 -14 9 -11 4 4 -6 -2
-17 -14 -24 -11 -7 -17 -8 -13 -2 3 6 1 11 -4 11 -6 0 -11 -5 -11 -11 0 -5 -5
-7 -12 -3 -6 4 -17 -1 -25 -11 -7 -11 -13 -15 -13 -11 0 5 -8 2 -17 -5 -14
-12 -16 -12 -9 1 4 9 2 8 -7 -2 -8 -10 -17 -15 -20 -11 -4 3 -7 1 -7 -6 0 -8
-7 -11 -15 -7 -8 3 -15 1 -15 -5 0 -6 -4 -7 -10 -4 -5 3 -10 1 -10 -4 0 -6 -7
-11 -15 -11 -8 0 -15 -4 -15 -8 0 -5 -16 -14 -35 -22 -19 -8 -35 -17 -35 -21
0 -4 -9 -11 -20 -14 -11 -4 -18 -11 -14 -16 3 -5 2 -9 -3 -8 -24 4 -43 -3 -43
-17 0 -8 -4 -12 -10 -9 -5 3 -10 -1 -10 -9 0 -9 -7 -16 -15 -16 -8 0 -15 -4
-15 -10 0 -5 -5 -10 -11 -10 -7 0 -28 -17 -47 -37 -20 -21 -40 -37 -45 -35 -4
1 -6 -2 -2 -8 3 -5 1 -10 -5 -10 -6 0 -8 -4 -5 -10 3 -5 1 -10 -4 -10 -11 0
-51 -36 -51 -45 0 -3 0 -10 0 -16 0 -5 -4 -8 -8 -5 -4 3 -19 -13 -32 -35 -14
-21 -28 -39 -33 -39 -4 0 -5 -5 -2 -10 3 -6 -1 -13 -9 -16 -9 -3 -13 -10 -10
-15 3 -5 0 -9 -5 -9 -6 0 -11 -7 -11 -15 0 -8 -4 -15 -10 -15 -5 0 -10 -7 -10
-15 0 -8 -4 -15 -9 -15 -5 0 -7 -10 -4 -22 4 -19 3 -20 -6 -8 -9 13 -11 12
-11 -5 0 -11 -8 -34 -18 -50 -11 -17 -18 -38 -16 -48 1 -9 -2 -15 -7 -11 -5 3
-10 0 -10 -5 -2 -14 -6 -30 -9 -33 -3 -5 -12 -42 -13 -60 -1 -9 -5 -14 -9 -12
-7 5 -13 -26 -9 -48 0 -5 -5 -8 -12 -8 -8 0 -7 -4 3 -10 8 -5 10 -10 4 -10 -6
0 -11 -6 -12 -12 0 -7 -4 -26 -7 -43 -3 -16 -7 -50 -9 -75 -6 -60 -9 -74 -21
-82 -6 -5 -6 -8 1 -8 7 0 15 -7 18 -16 3 -8 2 -12 -3 -9 -5 3 -12 1 -16 -5 -3
-5 -2 -10 3 -10 13 0 10 -33 -3 -42 -6 -5 -5 -8 4 -8 11 0 11 -3 0 -17 -8 -10
-9 -14 -2 -10 13 8 12 -30 -2 -52 -6 -10 -4 -12 5 -6 10 6 12 3 8 -13 -4 -13
-1 -22 5 -22 7 0 5 -5 -3 -10 -8 -5 -10 -10 -4 -10 6 0 10 -13 9 -30 -1 -16 3
-30 8 -30 5 0 3 -8 -4 -17 -11 -13 -11 -15 -1 -9 10 6 13 3 10 -11 -2 -11 4
-28 12 -38 9 -11 10 -16 3 -11 -7 4 -13 3 -13 -3 0 -5 5 -13 11 -16 6 -4 8
-13 5 -21 -3 -7 -1 -16 4 -19 5 -3 7 -12 3 -20 -3 -8 0 -15 6 -15 6 0 11 -11
11 -24 0 -31 24 -78 36 -68 4 4 2 -2 -6 -12 -10 -13 -10 -17 -2 -12 8 5 12 1
12 -11 0 -11 7 -28 15 -39 8 -10 15 -27 15 -36 0 -9 8 -21 17 -27 10 -5 15
-13 11 -16 -4 -4 -2 -13 5 -21 31 -34 37 -44 37 -58 0 -8 9 -21 19 -28 11 -8
21 -20 23 -28 4 -19 24 -40 38 -40 6 0 9 -4 5 -9 -3 -6 3 -14 12 -20 10 -6 15
-11 11 -11 -4 0 0 -9 9 -19 9 -11 20 -18 25 -15 4 3 5 -2 2 -11 -4 -9 -2 -15
3 -13 4 2 30 -19 56 -46 26 -27 47 -46 47 -42 0 5 13 -6 29 -23 15 -16 31 -27
35 -24 3 3 6 -2 6 -13 0 -13 3 -15 8 -7 6 9 12 7 22 -7 8 -11 19 -20 24 -20 5
0 15 -8 23 -18 10 -11 12 -12 8 -2 -4 10 -2 9 8 -2 8 -10 17 -15 20 -11 4 3 9
-2 13 -11 3 -9 12 -16 19 -16 8 0 21 -7 29 -16 12 -12 16 -12 16 -2 1 9 5 7
14 -4 7 -10 20 -18 29 -18 9 0 19 -5 22 -10 4 -6 10 -8 15 -5 4 3 10 -1 13 -9
3 -8 14 -13 24 -12 10 2 21 -1 25 -7 6 -10 47 -18 96 -20 12 -1 21 -6 19 -11
-3 -6 5 -12 17 -12 11 -1 35 -4 51 -8 17 -3 44 -7 62 -10 18 -2 37 -7 42 -10
5 -4 12 -2 16 4 4 6 13 5 26 -3 16 -10 21 -9 29 3 8 13 10 13 10 -2 0 -14 5
-15 30 -8 18 5 30 5 30 -1 0 -5 5 -9 11 -9 5 0 7 6 3 13 -5 9 -4 9 6 0 11 -10
16 -9 27 5 8 9 12 12 9 5 -4 -6 -2 -14 4 -18 5 -3 10 -1 10 6 0 8 4 8 15 -1
12 -10 15 -10 15 1 0 11 2 11 10 -1 7 -11 10 -11 10 -2 0 7 4 11 9 7 5 -3 13
0 17 6 4 8 9 7 15 -2 6 -9 12 -10 17 -4 11 15 32 17 32 3 0 -8 4 -7 10 3 5 9
21 14 39 13 18 -1 31 3 31 9 0 8 4 7 9 -2 6 -9 11 -10 15 -2 4 6 12 9 17 6 5
-4 9 2 9 12 0 10 3 14 8 8 8 -12 22 -13 40 -2 6 5 12 6 12 2 0 -3 13 1 29 9
16 9 31 12 35 9 3 -4 6 -1 6 5 0 6 7 9 15 6 8 -4 15 -1 15 6 0 7 6 10 14 7 8
-3 17 1 20 10 4 9 14 13 26 10 11 -3 20 -1 20 4 0 5 11 11 25 15 14 3 22 11
18 17 -4 6 0 8 10 4 10 -3 17 -2 17 4 0 6 5 7 10 4 6 -3 10 -1 10 5 0 6 5 8
10 5 6 -3 10 -1 10 4 0 6 6 11 14 11 8 0 17 7 20 16 4 9 9 14 12 11 4 -3 12
-1 20 6 33 29 44 37 44 31 0 -3 9 4 21 17 11 13 17 17 13 9 -4 -8 11 4 33 27
22 23 43 39 47 36 3 -4 6 1 6 11 0 9 5 14 10 11 6 -3 10 1 10 9 0 9 7 16 16
16 8 0 12 5 9 10 -3 6 2 10 11 10 10 0 15 3 11 6 -3 3 5 17 19 31 13 13 24 28
24 34 0 6 4 8 9 5 8 -5 38 22 34 30 -4 10 10 43 17 39 5 -3 14 8 22 25 7 16
16 30 20 30 4 0 4 7 1 17 -4 10 -2 14 4 10 9 -6 21 9 28 36 2 4 4 10 5 15 1 4
2 11 1 15 -1 5 3 6 8 3 5 -4 15 10 21 29 6 19 15 35 20 35 4 0 6 9 3 20 -3 12
0 20 6 20 7 0 9 4 6 10 -3 6 -1 10 5 10 6 0 8 5 5 10 -3 6 0 10 7 10 11 0 10
2 0 9 -11 6 -10 10 4 15 9 3 14 9 11 13 -4 3 -1 13 6 21 9 13 9 14 0 8 -9 -5
-11 -2 -7 8 3 9 10 16 16 16 5 0 6 5 3 10 -4 6 -1 18 7 27 11 14 11 16 -2 8
-13 -8 -13 -7 0 10 8 10 14 20 13 22 -2 1 -2 6 -2 11 1 4 0 15 -1 26 -1 10 3
15 8 12 12 -7 10 13 -2 33 -7 10 -6 12 4 6 10 -6 12 -4 7 8 -3 9 1 18 10 21
14 6 14 8 1 24 -16 17 -13 47 2 37 9 -6 5 34 -5 43 -2 3 1 12 8 20 9 12 9 16
-1 19 -6 3 -9 10 -5 16 9 15 11 87 2 87 -4 0 -5 17 -3 37 2 22 -2 40 -9 45 -9
6 -9 8 1 8 10 0 9 7 -2 34 -10 25 -11 37 -3 45 7 7 7 11 1 11 -11 0 -13 7 -16
55 -1 14 -6 25 -10 25 -4 0 -8 14 -8 31 0 21 -4 28 -12 23 -8 -5 -7 0 2 11 9
11 10 16 3 11 -9 -5 -13 1 -13 18 0 14 -4 26 -10 26 -5 0 -10 8 -10 18 -1 9
-9 35 -20 57 -10 22 -16 44 -13 49 4 5 1 6 -5 2 -8 -5 -12 1 -12 14 0 12 -4
18 -10 15 -5 -3 -10 2 -10 12 0 10 -9 29 -19 42 -10 14 -16 31 -13 40 3 8 1
12 -4 9 -10 -6 -29 10 -32 27 -2 14 -31 52 -70 93 -17 19 -30 38 -27 42 3 5 0
12 -6 16 -8 5 -9 3 -4 -7 4 -8 -1 -5 -12 6 -11 11 -19 23 -16 28 2 4 -3 7 -11
7 -9 0 -23 11 -32 25 -9 14 -23 25 -31 25 -8 0 -12 4 -8 9 7 12 -29 33 -40 23
-5 -4 -5 -2 -2 4 4 7 0 17 -8 24 -8 7 -15 10 -15 6 0 -3 -9 2 -19 12 -38 34
-51 43 -51 35 0 -4 -5 0 -11 10 -5 9 -17 17 -24 17 -8 0 -15 5 -15 11 0 5 -5
7 -10 4 -6 -3 -13 1 -16 9 -3 9 -15 16 -25 16 -10 0 -19 5 -19 12 0 6 -3 8 -7
5 -3 -4 -12 -2 -20 4 -7 6 -13 8 -13 5 0 -4 -7 0 -16 8 -8 9 -20 14 -25 11 -5
-4 -9 -1 -9 4 0 6 -9 11 -20 11 -11 0 -20 5 -20 10 0 6 -3 9 -7 8 -14 -3 -78
14 -90 24 -7 6 -13 8 -13 4 0 -3 -16 1 -36 9 -20 8 -40 13 -44 10 -5 -3 -11
-1 -15 5 -4 7 -13 6 -27 -1 -13 -7 -18 -7 -14 -1 3 6 2 13 -4 17 -5 3 -10 1
-10 -6 0 -8 -3 -9 -13 0 -8 6 -17 8 -20 4 -4 -3 -12 -1 -20 5 -14 12 -34 11
-56 -2 -9 -6 -12 -5 -7 2 4 6 -6 10 -26 8 -18 -1 -39 2 -45 7 -7 5 -13 6 -13
1 0 -10 -92 -10 -107 -1 -6 4 -19 0 -29 -7z"/>
</g>
</svg>
